:FULLY-SPECIFIED
:FORCE-ALL-JOINTS-BE-3DOF
:DEGREES
63
root 0.556893 17.3707 -2.87504 2.20665 -2.00257 -0.83229
lfemur -20.3599 5.45494 -18.5361
ltibia 75.4928 0 0
lfoot -0.264356 -2.56804 0
ltoes -12.6029 0 0
rfemur -13.7694 -4.39888 23.6361
rtibia 74.8448 0 0
rfoot 4.33808 -6.48732 0
rtoes 8.87267 0 0
lowerback 18.205 -0.796331 -0.788226
upperback 2.66198 -1.19169 -0.327956
thorax -7.28154 -0.575728 0.378095
lowerneck -4.06164 0.896842 -0.646642
upperneck -12.7428 1.15041 0.460283
head -3.13558 0.640458 0.206843
lclavicle -5.19266e-15 2.66274e-14 0
lhumerus -36.0296 -13.1326 90.7802
lradius 105.456 0 0
lwrist 31.6474 0 0
lhand -37.7969 10.7401 0
lfingers 7.12502 0 0
lthumb -10.843 40.4328 0
rclavicle -5.19266e-15 2.66274e-14 0
rhumerus -39.5508 9.40305 -86.6223
rradius 90.0663 0 0
rwrist -0.769297 0 0
rhand -44.6206 38.1151 0
rfingers 7.12502 0 0
rthumb -17.4186 8.87555 0
64
root 0.557567 17.3745 -2.33571 2.10628 -1.64078 -0.622111
lfemur -20.087 4.98717 -19.0022
ltibia 73.6739 0 0
lfoot -1.02767 -2.4712 0
ltoes -12.7774 0 0
rfemur -13.728 -4.77977 23.2194
rtibia 76.4403 0 0
rfoot 5.32803 -6.49131 0
rtoes 9.71548 0 0
lowerback 18.193 -0.796683 -1.02079
upperback 2.68075 -1.2464 -0.449979
thorax -7.25215 -0.597442 0.391671
lowerneck -4.19503 0.798466 -0.721638
upperneck -12.5525 1.0403 0.675139
head -3.0603 0.582387 0.289629
lclavicle -4.74418e-15 2.74032e-14 0
lhumerus -35.4516 -13.2386 90.5079
lradius 105.528 0 0
lwrist 31.5293 0 0
lhand -37.7113 10.58 0
lfingers 7.12502 0 0
lthumb -10.7605 40.277 0
rclavicle -4.74418e-15 2.74032e-14 0
rhumerus -39.9785 9.24325 -86.5451
rradius 89.5246 0 0
rwrist -0.67107 0 0
rhand -44.621 38.1157 0
rfingers 7.12502 0 0
rthumb -17.4189 8.87614 0
65
root 0.558241 17.3783 -1.79638 2.00591 -1.27899 -0.411932
lfemur -19.8141 4.51939 -19.4684
ltibia 71.855 0 0
lfoot -1.79098 -2.37437 0
ltoes -12.952 0 0
rfemur -13.6867 -5.16066 22.8027
rtibia 78.0357 0 0
rfoot 6.31799 -6.4953 0
rtoes 10.5583 0 0
lowerback 18.1811 -0.797035 -1.25335
upperback 2.69952 -1.30111 -0.572002
thorax -7.22275 -0.619156 0.405248
lowerneck -4.32842 0.70009 -0.796635
upperneck -12.3622 0.930191 0.889995
head -2.98502 0.524317 0.372415
lclavicle -4.2957e-15 2.81789e-14 0
lhumerus -34.8736 -13.3446 90.2356
lradius 105.601 0 0
lwrist 31.4112 0 0
lhand -37.6257 10.4199 0
lfingers 7.12502 0 0
lthumb -10.6779 40.1213 0
rclavicle -4.2957e-15 2.81789e-14 0
rhumerus -40.4061 9.08345 -86.4679
rradius 88.9828 0 0
rwrist -0.572843 0 0
rhand -44.6214 38.1162 0
rfingers 7.12502 0 0
rthumb -17.4193 8.87673 0
66
root 0.558915 17.3821 -1.25706 1.90554 -0.917201 -0.201753
lfemur -19.5412 4.05162 -19.9345
ltibia 70.036 0 0
lfoot -2.55429 -2.27754 0
ltoes -13.1265 0 0
rfemur -13.6453 -5.54155 22.386
rtibia 79.6312 0 0
rfoot 7.30795 -6.49929 0
rtoes 11.4011 0 0
lowerback 18.1691 -0.797387 -1.48591
upperback 2.71829 -1.35582 -0.694024
thorax -7.19336 -0.64087 0.418825
lowerneck -4.46181 0.601714 -0.871631
upperneck -12.1718 0.820082 1.10485
head -2.90974 0.466246 0.4552
lclavicle -3.84722e-15 2.89547e-14 0
lhumerus -34.2956 -13.4507 89.9633
lradius 105.674 0 0
lwrist 31.2931 0 0
lhand -37.5402 10.2598 0
lfingers 7.12502 0 0
lthumb -10.5954 39.9655 0
rclavicle -3.84722e-15 2.89547e-14 0
rhumerus -40.8338 8.92365 -86.3906
rradius 88.4411 0 0
rwrist -0.474616 0 0
rhand -44.6217 38.1168 0
rfingers 7.12502 0 0
rthumb -17.4196 8.87732 0
